# xmcd CD database file
#
# Track frame offsets:
#	150
#	22518
#	40307
#	57399
#	80269
#	102373
#	126061
#	147691
#	162624
#	183533
#
# Disc length: 2715 seconds
#
# Revision: 1
# Processed by: cddbd v1.5.2PL0 Copyright (c) Steve Scherf et al.
# Submitted via: CDex 1.51
#
DISCID=860a990a
DTITLE=Daler Mehndi - Fantastic Daler, The Ultimate Collection 1
DYEAR=2004
DGENRE=Bhangra
TTITLE0=Aayi Shubh Raatri
TTITLE1=Billo
TTITLE2=Ukhli Vich Daana
TTITLE3=Ishq Da Charkha
TTITLE4=Jalwa
TTITLE5=Bolo Ta Ra Ra...
TTITLE6=Dil Mera Nal Nal Nal
TTITLE7=Saade Dil Te
TTITLE8=Bole Ni Bole
TTITLE9=Dum Dum De
EXTD=Daler Mehndi \nvisit http://www.dalermehndi.com/\nthis is his 2nd best album :) YEAR: 2004
EXTT0=
EXTT1=
EXTT2=
EXTT3=
EXTT4=
EXTT5=
EXTT6=
EXTT7=
EXTT8=
EXTT9=
PLAYORDER=
